<svg xmlns="http://www.w3.org/2000/svg" width="58" height="44" fill="none"><rect width="57.589" height="43.768" x=".411" fill="#ED2C2E" rx="10"/><path fill="#fff" d="m14.718 10.623-1.26 3.774h-.76l1.586-4.355h.486l-.052.58Zm1.054 3.774-1.262-3.774-.055-.58h.49l1.592 4.354h-.765Zm-.06-1.615v.595h-2.294v-.595h2.293ZM19.227 13.276a.66.66 0 0 0-.04-.24.467.467 0 0 0-.137-.191 1.113 1.113 0 0 0-.278-.168 3.597 3.597 0 0 0-.452-.17 4.897 4.897 0 0 1-.556-.212 2.101 2.101 0 0 1-.44-.276 1.169 1.169 0 0 1-.292-.361 1.04 1.04 0 0 1-.104-.476c0-.178.035-.34.107-.485.073-.145.176-.27.31-.377.135-.107.294-.19.477-.248.184-.06.386-.09.608-.09.313 0 .582.06.808.18.228.12.403.28.524.481.124.202.186.424.186.667h-.721a.78.78 0 0 0-.09-.38.618.618 0 0 0-.267-.263.936.936 0 0 0-.448-.095c-.172 0-.315.027-.429.08a.577.577 0 0 0-.255.219.585.585 0 0 0-.084.31c0 .083.019.157.055.225a.618.618 0 0 0 .168.186c.076.056.17.108.284.158.114.05.248.098.402.144.234.072.438.151.611.24.174.085.319.182.435.292.116.11.202.235.26.374.058.138.087.294.087.47 0 .183-.035.349-.107.496-.071.146-.174.27-.307.374a1.45 1.45 0 0 1-.475.236c-.183.054-.388.081-.614.081-.202 0-.402-.028-.599-.084a1.743 1.743 0 0 1-.533-.254 1.297 1.297 0 0 1-.382-.43 1.249 1.249 0 0 1-.142-.608h.727c0 .142.023.263.07.362.048.1.114.182.2.245a.885.885 0 0 0 .295.138c.114.03.235.045.364.045.17 0 .312-.025.426-.075a.565.565 0 0 0 .26-.21.56.56 0 0 0 .088-.31ZM24.294 13.276a.66.66 0 0 0-.04-.24.467.467 0 0 0-.137-.191 1.113 1.113 0 0 0-.278-.168 3.597 3.597 0 0 0-.452-.17 4.897 4.897 0 0 1-.556-.212 2.101 2.101 0 0 1-.44-.276 1.169 1.169 0 0 1-.292-.361 1.04 1.04 0 0 1-.104-.476c0-.178.035-.34.107-.485.073-.145.176-.27.31-.377.135-.107.294-.19.477-.248.184-.06.387-.09.608-.09.313 0 .582.06.808.18.228.12.403.28.524.481.124.202.186.424.186.667h-.721a.78.78 0 0 0-.09-.38.618.618 0 0 0-.266-.263.936.936 0 0 0-.45-.095c-.171 0-.314.027-.428.08a.577.577 0 0 0-.255.219.585.585 0 0 0-.084.31c0 .083.019.157.055.225a.618.618 0 0 0 .168.186c.076.056.17.108.284.158.114.05.248.098.403.144.233.072.437.151.61.24.174.085.32.182.435.292.116.11.203.235.26.374.058.138.087.294.087.47 0 .183-.035.349-.107.496-.071.146-.174.27-.307.374a1.45 1.45 0 0 1-.475.236c-.183.054-.388.081-.613.081-.203 0-.403-.028-.6-.084a1.743 1.743 0 0 1-.532-.254 1.297 1.297 0 0 1-.383-.43 1.249 1.249 0 0 1-.142-.608h.727c0 .142.023.263.07.362.048.1.114.182.2.245a.885.885 0 0 0 .295.138c.114.03.235.045.365.045.17 0 .311-.025.425-.075a.565.565 0 0 0 .26-.21.56.56 0 0 0 .088-.31ZM28.426 13.802v.595h-2.239v-.595h2.239Zm-2.033-3.76v4.355h-.727v-4.355h.727Zm1.74 1.819v.586h-1.946v-.586h1.946Zm.278-1.819v.598h-2.224v-.598h2.224ZM31.779 13.802v.595H29.54v-.595h2.239Zm-2.033-3.76v4.355h-.727v-4.355h.727Zm1.74 1.819v.586H29.54v-.586h1.946Zm.278-1.819v.598H29.54v-.598h2.224ZM35.716 10.042v4.355h-.726l-1.891-3.12v3.12h-.727v-4.355h.727l1.896 3.126v-3.126h.721ZM41.42 12.1v.24c0 .329-.041.624-.124.885a1.93 1.93 0 0 1-.356.667 1.536 1.536 0 0 1-.55.422 1.725 1.725 0 0 1-.713.143c-.258 0-.495-.048-.709-.143a1.599 1.599 0 0 1-.553-.422 1.975 1.975 0 0 1-.365-.667 2.856 2.856 0 0 1-.127-.886V12.1c0-.329.042-.623.127-.882.085-.261.205-.484.36-.667.156-.186.34-.326.552-.422a1.69 1.69 0 0 1 .71-.147c.26 0 .498.05.712.147.214.096.398.236.553.422.154.183.273.405.356.667.085.259.127.553.127.882Zm-.726.24v-.246a2.67 2.67 0 0 0-.07-.643 1.342 1.342 0 0 0-.2-.47.844.844 0 0 0-.32-.287.926.926 0 0 0-.432-.098.873.873 0 0 0-.75.386 1.416 1.416 0 0 0-.2.47c-.046.184-.07.399-.07.642v.245c0 .244.024.46.07.647.046.187.114.345.203.475.09.128.198.224.324.29a.932.932 0 0 0 .428.096.94.94 0 0 0 .432-.096.877.877 0 0 0 .318-.29 1.45 1.45 0 0 0 .197-.475c.047-.188.07-.403.07-.647ZM45.492 10.042v4.355h-.727l-1.891-3.12v3.12h-.727v-4.355h.727l1.897 3.126v-3.126h.72ZM22.48 16.375v18.179h-4.407V16.375h4.408Zm5.502 0v3.384H12.697v-3.384h15.285ZM36.974 30.271l3.805-13.896h4.936L39.55 34.554h-3.19l.615-4.283ZM33.52 16.375l3.806 13.896.64 4.283H34.74l-6.13-18.179h4.911Z"/></svg>